<svg version="1.0" xmlns="http://www.w3.org/2000/svg"
 width="1200.000000pt" height="1203.000000pt" viewBox="0 0 1200.000000 1203.000000"
 preserveAspectRatio="xMidYMid meet">

<g id='bckbtn'>
<path d="M4625 11144 c-76 -6 -226 -34 -263 -50 -18 -8 -40 -14 -48 -14 -28 0
-198 -87 -290 -148 -209 -139 -412 -355 -551 -587 -247 -413 -353 -794 -353
-1276 0 -123 -4 -179 -12 -187 -9 -9 -89 -12 -298 -12 -320 -1 -509 -11 -590
-33 -65 -18 -178 -65 -201 -84 -8 -7 -20 -13 -26 -13 -14 0 -195 -122 -241
-163 -334 -295 -524 -710 -583 -1277 -15 -147 -15 -487 0 -610 43 -347 122
-621 258 -895 68 -138 85 -168 142 -255 39 -59 42 -64 69 -96 9 -12 31 -39 47
-60 56 -72 160 -176 231 -233 102 -80 119 -92 198 -134 211 -114 256 -142 262
-159 6 -19 -44 -120 -111 -223 -31 -48 -55 -91 -122 -215 -130 -239 -223 -663
-223 -1015 0 -294 74 -691 180 -967 73 -190 214 -444 279 -502 12 -11 21 -23
21 -29 0 -15 197 -207 267 -260 104 -79 251 -159 390 -213 38 -14 77 -30 88
-34 25 -11 75 -17 249 -32 195 -16 576 7 751 45 69 15 166 40 195 50 20 7 378
120 500 157 52 16 129 38 170 50 41 11 98 26 125 34 28 8 91 24 140 36 50 12
106 26 125 31 148 38 473 37 745 -2 156 -23 416 -68 510 -89 22 -5 85 -19 140
-31 55 -12 190 -43 300 -69 211 -50 321 -75 395 -90 25 -5 77 -16 115 -24 154
-33 527 -76 658 -76 115 0 323 23 438 49 136 30 323 106 451 182 241 143 391
275 576 504 14 17 107 155 149 221 7 10 42 78 77 149 106 216 182 445 220 660
31 177 36 236 36 413 0 250 -24 408 -94 632 -26 84 -105 251 -136 290 -11 14
-20 29 -20 33 0 5 -21 40 -47 79 -53 79 -52 90 13 121 21 10 46 22 54 27 8 5
49 25 90 46 83 41 199 116 275 178 78 64 251 243 292 304 84 122 122 182 153
238 18 32 36 64 40 69 15 19 117 270 135 330 151 512 154 1155 8 1695 -38 140
-48 173 -95 300 -42 114 -149 343 -168 360 -3 3 -17 23 -30 45 -13 22 -33 52
-44 67 -12 14 -32 41 -46 60 -34 46 -125 137 -185 184 -27 21 -52 41 -55 44
-13 13 -99 70 -106 70 -4 0 -15 6 -23 14 -55 48 -294 146 -436 178 -127 28
-424 10 -520 -31 -35 -15 -175 -43 -189 -38 -16 6 -31 81 -51 262 -31 268 -62
439 -116 625 -43 148 -95 282 -162 420 -29 58 -55 107 -59 108 -5 2 -8 9 -8
15 0 6 -17 36 -37 66 -229 341 -482 557 -788 675 -38 15 -79 31 -90 35 -27 11
-113 35 -204 56 -143 34 -440 3 -588 -61 -17 -8 -36 -14 -42 -14 -28 0 -164
-77 -247 -141 -104 -79 -410 -378 -497 -486 -69 -85 -96 -106 -118 -89 -8 6
-34 39 -58 74 -63 93 -178 227 -267 312 -226 215 -448 343 -701 405 -62 15
-317 27 -418 19z m287 -448 c73 -20 109 -34 238 -94 168 -79 273 -165 389
-319 33 -45 61 -84 61 -86 0 -5 60 -98 78 -122 4 -5 35 -66 69 -135 71 -142
115 -267 138 -390 9 -47 18 -94 21 -105 41 -162 43 -643 4 -805 -4 -19 -16
-71 -25 -115 -33 -163 -74 -280 -146 -428 -169 -343 -482 -605 -816 -683 -402
-93 -767 52 -1035 411 -173 231 -266 467 -324 820 -26 155 -25 484 0 650 33
210 84 403 151 565 135 325 374 616 610 742 90 48 161 69 320 97 79 14 209 12
267 -3z m2726 -55 c104 -35 198 -83 287 -146 56 -40 220 -199 263 -255 82
-109 163 -249 205 -360 101 -266 142 -418 179 -675 17 -116 17 -476 0 -575
-39 -231 -101 -476 -147 -585 -7 -16 -20 -52 -29 -79 -28 -84 -149 -317 -167
-324 -5 -2 -9 -8 -9 -14 0 -16 -103 -140 -165 -199 -31 -29 -86 -73 -122 -97
-58 -39 -93 -57 -178 -91 -114 -47 -360 -59 -506 -26 -189 42 -362 109 -489
190 -68 42 -219 200 -274 285 -27 41 -56 87 -66 101 -30 43 -106 209 -135 294
-85 250 -125 527 -125 871 0 297 40 526 129 729 110 252 288 520 467 699 141
143 226 206 324 243 128 48 158 52 330 48 120 -3 147 -7 228 -34z m2009 -2142
c304 -42 616 -283 766 -591 68 -140 151 -407 171 -553 3 -22 12 -85 20 -140
28 -194 40 -458 27 -626 -34 -439 -114 -718 -272 -952 -77 -113 -85 -123 -194
-232 -213 -215 -430 -315 -686 -315 -230 0 -427 87 -610 270 -252 252 -388
567 -457 1060 -23 167 -23 639 0 815 61 462 201 792 432 1020 177 174 367 250
638 254 48 0 122 -4 165 -10z m-6689 -95 c136 -23 251 -72 327 -139 17 -15 41
-37 55 -49 61 -53 245 -303 303 -411 128 -241 193 -435 219 -653 16 -135 16
-597 0 -718 -7 -50 -25 -143 -41 -205 -78 -305 -175 -501 -325 -658 -62 -64
-207 -181 -225 -181 -5 0 -11 -3 -13 -7 -5 -12 -96 -59 -158 -82 -69 -25 -214
-51 -291 -51 -64 0 -229 31 -299 56 -45 16 -180 83 -190 94 -3 3 -25 18 -50
32 -45 26 -184 161 -255 247 -79 96 -194 296 -249 431 -15 36 -31 74 -36 85
-12 28 -59 169 -77 235 -38 139 -44 197 -50 489 -5 304 5 451 43 623 55 248
185 494 346 656 89 90 132 120 237 162 98 40 167 52 331 59 188 8 284 4 398
-15z m3439 -1138 c40 -9 81 -20 90 -24 218 -107 288 -165 718 -600 673 -682
1129 -1137 1234 -1233 57 -52 109 -99 115 -104 13 -12 150 -128 186 -158 14
-11 45 -39 70 -61 57 -51 97 -85 180 -156 110 -93 336 -315 447 -440 141 -160
288 -427 314 -570 37 -211 41 -249 35 -350 -14 -240 -76 -510 -182 -793 -31
-82 -139 -263 -213 -357 -68 -85 -232 -252 -296 -302 -16 -12 -36 -28 -43 -35
-44 -42 -154 -110 -229 -140 -124 -51 -190 -66 -403 -94 -99 -13 -411 -7 -515
11 -113 19 -277 50 -315 60 -39 10 -127 30 -240 55 -41 9 -123 27 -182 41 -59
14 -131 30 -160 34 -29 5 -84 16 -123 25 -38 8 -97 20 -131 25 -34 5 -67 12
-75 15 -28 10 -318 60 -439 75 -36 5 -103 14 -150 21 -137 20 -541 18 -675 -5
-256 -42 -512 -107 -691 -175 -145 -54 -272 -95 -364 -116 -41 -9 -98 -23
-127 -31 -28 -8 -64 -14 -80 -14 -16 0 -33 -4 -39 -9 -5 -5 -34 -14 -64 -20
-30 -6 -77 -16 -105 -22 -30 -7 -163 -12 -335 -13 -296 -1 -332 3 -435 48 -16
8 -34 15 -40 17 -5 2 -41 22 -80 43 -301 169 -511 476 -620 906 -27 106 -33
145 -55 345 -14 131 -8 550 10 640 21 103 51 220 61 230 5 5 9 16 9 24 0 14
51 132 70 161 6 8 14 25 19 36 48 110 347 478 476 586 173 145 519 479 775
748 64 67 211 236 265 305 22 28 42 52 45 55 3 3 25 30 49 60 24 30 51 62 60
70 9 8 36 42 61 75 25 33 47 62 50 65 3 3 37 44 74 93 37 48 100 121 139 163
143 152 167 179 172 194 16 40 380 334 510 412 202 120 432 187 700 202 129 8
402 -3 472 -18z"/>
<path d="M9044 7325 c-124 -33 -222 -120 -258 -229 -20 -62 -20 -103 0 -184
28 -110 89 -206 231 -360 49 -53 107 -117 129 -141 21 -25 50 -56 63 -70 48
-54 166 -236 218 -340 33 -64 62 -87 91 -72 17 9 82 101 82 116 0 3 21 40 47
83 75 123 145 212 328 412 108 119 125 139 170 210 65 99 77 139 79 250 1 81
-2 101 -22 140 -47 91 -135 157 -243 184 -82 20 -131 20 -199 0 -106 -31 -166
-85 -215 -192 -19 -40 -39 -71 -44 -68 -5 4 -24 35 -41 71 -80 164 -240 237
-416 190z"/>
</g>
</svg>
