<svg xmlns="http://www.w3.org/2000/svg" version="1.1" xmlns:xlink="http://www.w3.org/1999/xlink" width="512" height="512" x="0" y="0" viewBox="0 0 128 128" style="enable-background:new 0 0 512 512" xml:space="preserve" class=""><g><g fill="#000"><path d="M66.211 72.422a4 4 0 1 1 3.578 7.156c-.582.29-1.18.535-1.789.733V81.5c0 3.078 5 3.436 5 .25a4 4 0 0 1 8 0c0 8.786-10.485 13.139-17 7.997-6.514 5.142-17 .789-17-7.997a4 4 0 0 1 8 0c0 3.186 5 2.828 5-.25v-1.19a12.95 12.95 0 0 1-1.789-.732 4 4 0 0 1 3.578-7.156 4.944 4.944 0 0 0 4.422 0zM80 71a5 5 0 1 1 0-10 5 5 0 0 1 0 10zM43 66a5 5 0 1 0 10 0 5 5 0 0 0-10 0z" fill="#59443f" opacity="1" data-original="#000000" class=""></path><path fill-rule="evenodd" d="M26.502 54c-4.904-7.879-5.674-18.06-1.139-26.922l3.948-7.715a5 5 0 0 1 6.73-2.173l14.243 7.288c.788.404 1.539.853 2.25 1.342 8.202-1.849 14.677-1.84 22.896.025a20.181 20.181 0 0 1 2.286-1.367L91.96 17.19a5 5 0 0 1 6.729 2.173l3.948 7.715c4.546 8.885 3.762 19.094-1.175 26.98a6.905 6.905 0 0 0 2.872.742c4.047.152 7.101 3.729 6.615 7.749-.341 2.828-.678 5.657-1.024 8.484 2.206 0 4.106 1.687 4.042 3.967-.062 2.19-1.917 3.967-4.143 3.967h-1.618a44.056 44.056 0 0 1-1.775 4.682l1.163.336a3.848 3.848 0 0 1 2.608 4.916c-.681 2.103-2.952 3.313-5.073 2.702l-2.734-.788a44.342 44.342 0 0 1-2.957 3.802l1.639.964c1.887 1.112 2.459 3.543 1.276 5.431-1.182 1.888-3.671 2.518-5.559 1.407l-3.431-2.02a44.051 44.051 0 0 1-24.99 9.366h-8.895a44.046 44.046 0 0 1-24.954-9.338l-3.383 1.992c-1.887 1.111-4.376.481-5.559-1.407-1.182-1.888-.61-4.32 1.277-5.43l1.583-.932a44.209 44.209 0 0 1-2.972-3.815l-2.663.768c-2.121.611-4.392-.599-5.073-2.702a3.847 3.847 0 0 1 2.608-4.916l1.088-.314a43.953 43.953 0 0 1-1.785-4.704h-1.533c-2.227 0-4.082-1.776-4.144-3.967-.062-2.214 1.78-3.967 3.958-3.967-.346-2.827-.683-5.656-1.024-8.484a6.924 6.924 0 0 1 6.615-7.749 6.906 6.906 0 0 0 2.985-.8zm1.627 24.967h1.983c2.226 0 3.981-1.776 3.92-3.967s-1.917-3.967-4.144-3.967H26c-.414-2.764-.685-5.553-1.02-8.327a14.924 14.924 0 0 0 12.95-12.094C38.94 45.185 41.77 40.39 46 37.231V43a4 4 0 0 0 8 0v-9.308c2.07-.47 4.052-.8 6-.99V49.5a4 4 0 0 0 8 0V32.717a48.4 48.4 0 0 1 6 1.009V43a4 4 0 0 0 8 0v-5.657c4.147 3.16 6.923 7.906 7.921 13.27a14.924 14.924 0 0 0 12.951 12.093c-.335 2.774-.606 5.563-1.02 8.327h-3.805c-2.226 0-4.081 1.776-4.143 3.967-.062 2.19 1.693 3.967 3.92 3.967h1.898c-.328.829-.685 1.643-1.07 2.44l-2.484-.716c-2.12-.611-4.392.598-5.073 2.702-.786 2.43.842 4.407 3.08 5.052a36.283 36.283 0 0 1-1.776 2.029c-2.04-1.202-4.636-1.024-5.997 1.149-.807 1.289-.797 2.831-.108 4.033a36.05 36.05 0 0 1-18.334 6.119H59.89a36.054 36.054 0 0 1-18.273-6.078c.712-1.208.732-2.77-.085-4.074-1.385-2.212-3.994-2.328-6.051-1.117a36.249 36.249 0 0 1-1.79-2.041c2.257-.65 3.951-2.59 3.148-5.072-.68-2.104-2.952-3.313-5.072-2.702l-2.558.737c-.39-.804-.75-1.625-1.08-2.461zM85.035 29.72c5.564 3.58 9.667 9.075 11.75 15.488a19.27 19.27 0 0 0-1.27-14.485l-2.582-5.045zm-42.152-.042-7.817-4-2.58 5.045a19.267 19.267 0 0 0-1.342 14.248c2.115-6.336 6.209-11.758 11.739-15.293z" clip-rule="evenodd" fill="#59443f" opacity="1" data-original="#000000" class=""></path></g></g></svg>